<mxfile host="app.diagrams.net" modified="2024-01-02T07:13:28.490Z" agent="Mozilla/5.0 (Windows NT 10.0; Win64; x64) AppleWebKit/537.36 (KHTML, like Gecko) Chrome/120.0.0.0 Safari/537.36" version="22.1.16" etag="OWxMrm1Z9tRoHdNeO7HU" type="github">
  <diagram name="Page-1" id="6gToBQB86ZUa2EvydDB6">
    <mxGraphModel>
      <root>
        <mxCell id="0" />
        <mxCell id="1" parent="0" />
      </root>
    </mxGraphModel>
  </diagram>
</mxfile>
